# xmcd
#
# Track frame offsets:
#	150
#	8997
#	17001
#	28536
#	39007
#	48337
#	58366
#	69041
#	78913
#	89256
#	98343
#	108334
#	117561
#	126009
#
# Disc length: 1816 seconds
#
# Revision: 0
# Processed by: cddbd v1.5.1PL0 Copyright (c) Steve Scherf et al.
# Submitted via: dBpowerAMP V4.0
#
DISCID=a007160e
DTITLE=Orville Couch -  Honky Tonk Man (Hello Trouble)
DYEAR=1900
DGENRE=Country
TTITLE0=Honky Tonk Man
TTITLE1=Hello Trouble
TTITLE2=Dance Her By Me
TTITLE3=Strike Like A Match
TTITLE4=(Since You've) Gone
TTITLE5=Uncle red
TTITLE6=His And Hers
TTITLE7=Come On Back
TTITLE8=Lonesomes
TTITLE9=Did I Miss You
TTITLE10=Greenville Diner
TTITLE11=Help Me Get My Cotton In
TTITLE12=Hello Doll
TTITLE13=Fraulein
EXTD=
EXTT0=
EXTT1=
EXTT2=
EXTT3=
EXTT4=
EXTT5=
EXTT6=
EXTT7=
EXTT8=
EXTT9=
EXTT10=
EXTT11=
EXTT12=
EXTT13=
PLAYORDER=
